<svg xmlns="http://www.w3.org/2000/svg" version="1.1" width="510" height="210">
<style>
  .data:hover{stroke-width: 4;}
  .data{stroke-width: 2; stroke-linecap:round;}
  .legend{stroke-width:.3; stroke-dasharray:5,5;}
</style>
<rect width="280" height="150" fill="#516291" stroke-width="2" stroke="#07153B" />
<g stroke="#07153B">
<line class="data" x1="10" y1="72" x2="20" y2="57" title="10:72" />
<line class="data" x1="20" y1="57" x2="30" y2="39"  />
<line class="data" x1="30" y1="39" x2="40" y2="104" />
<line class="data" x1="40" y1="104" x2="50" y2="25" />
<line class="data" x1="50" y1="25" x2="60" y2="48"  />
<line class="data" x1="60" y1="48" x2="70" y2="68"  />
<line class="data" x1="70" y1="68" x2="80" y2="100" />
<line class="data" x1="80" y1="100" x2="90" y2="38" />
<line class="data" x1="90" y1="38" x2="100" y2="123" />
<line class="data" x1="100" y1="123" x2="110" y2="13" />
<line class="data" x1="110" y1="13" x2="120" y2="90"  />
<line class="data" x1="120" y1="90" x2="130" y2="127" />
<line class="data" x1="130" y1="127" x2="140" y2="77" />
<line class="data" x1="140" y1="77" x2="150" y2="21"  />
<line class="data" x1="150" y1="21" x2="160" y2="98"  />
<line class="data" x1="160" y1="98" x2="170" y2="133" />
<line class="data" x1="170" y1="133" x2="180" y2="32" />
<line class="data" x1="180" y1="32" x2="190" y2="35"  />
<line class="data" x1="190" y1="35" x2="200" y2="27" title="190-200: 35-27"/>
<line class="data" x1="200" y1="27" x2="210" y2="31" />
<line class="data" x1="210" y1="31" x2="220" y2="131" />
<line class="data" x1="220" y1="131" x2="230" y2="43" />
<line class="data" x1="230" y1="43" x2="240" y2="102" />
<line class="data" x1="240" y1="102" x2="250" y2="13"  />
<line class="data" x1="250" y1="13" x2="260" y2="118"  />
<line class="legend" x1="10" y1="0" x2="10" y2="160"  />
<line class="legend" x1="30" y1="0" x2="30" y2="160"  />
<line class="legend" x1="50" y1="0" x2="50" y2="160"  />
<line class="legend" x1="70" y1="0" x2="70" y2="160"  />
<line class="legend" x1="90" y1="0" x2="90" y2="160"  />
<line class="legend" x1="110" y1="0" x2="110" y2="160"  />
<line class="legend" x1="130" y1="0" x2="130" y2="160"  />
<line class="legend" x1="150" y1="0" x2="150" y2="160"  />
<line class="legend" x1="170" y1="0" x2="170" y2="160"  />
<line class="legend" x1="190" y1="0" x2="190" y2="160"  />
<line class="legend" x1="210" y1="0" x2="210" y2="160"  />
<line class="legend" x1="230" y1="0" x2="230" y2="160"  />
<line class="legend" x1="250" y1="0" x2="250" y2="160"  />
<line class="legend" x1="270" y1="0" x2="270" y2="160"  />
<!-- horizontal -->
<line x1="0" y1="10" x2="285" y2="10" stroke-width=".3" stroke-dasharray="5,5" />


<line  class='data' y1='41.600000' x1='0' y2='36.977778' x2='20'  title='36.000000 nach 37.000000' />
<line  class='data' y1='36.977778' x1='20' y2='32.355556' x2='40'  title='37.000000 nach 38.000000' />
<line  class='data' y1='32.355556' x1='40' y2='27.733333' x2='60'  title='38.000000 nach 39.000000' />
<line  class='data' y1='27.733333' x1='60' y2='23.111111' x2='80'  title='39.000000 nach 40.000000' />
<line  class='data' y1='23.111111' x1='80' y2='18.488889' x2='100'  title='40.000000 nach 41.000000' />
<line  class='data' y1='18.488889' x1='100' y2='13.866667' x2='120'  title='41.000000 nach 42.000000' />
<line  class='data' y1='13.866667' x1='120' y2='9.244444' x2='140'  title='42.000000 nach 43.000000' />
<line  class='data' y1='9.244444' x1='140' y2='4.622222' x2='160'  title='43.000000 nach 44.000000' />
<line  class='data' y1='4.622222' x1='160' y2='0.000000' x2='180'  title='44.000000 nach 45.000000' />
<line  class='data' y1='0.000000' x1='180' y2='161.777778' x2='200'  title='45.000000 nach 10.000000' />
<line  class='data' y1='161.777778' x1='200' y2='157.155556' x2='220'  title='10.000000 nach 11.000000' />
<line  class='data' y1='157.155556' x1='220' y2='152.533333' x2='240'  title='11.000000 nach 12.000000' />
<line  class='data' y1='152.533333' x1='240' y2='115.555556' x2='260'  title='12.000000 nach 20.000000' />
<line  class='data' y1='115.555556' x1='260' y2='161.777778' x2='280'  title='20.000000 nach 10.000000' />
<line  class='data' y1='161.777778' x1='280' y2='208.000000' x2='300'  title='10.000000 nach 0.000000' />
<line  class='data' y1='208.000000' x1='300' y2='208.000000' x2='320'  title='0.000000 nach 0.000000' />
<line  class='data' y1='208.000000' x1='320' y2='208.000000' x2='340'  title='0.000000 nach 0.000000' />
<line  class='data' y1='208.000000' x1='340' y2='208.000000' x2='360'  title='0.000000 nach 0.000000' />
<line  class='data' y1='208.000000' x1='360' y2='208.000000' x2='380'  title='0.000000 nach 0.000000' />
<line  class='data' y1='208.000000' x1='380' y2='208.000000' x2='400'  title='0.000000 nach 0.000000' />
<line  class='data' y1='208.000000' x1='400' y2='208.000000' x2='420'  title='0.000000 nach 0.000000' />
<line  class='data' y1='208.000000' x1='420' y2='203.377778' x2='440'  title='0.000000 nach 1.000000' />
<line  class='data' y1='203.377778' x1='440' y2='208.000000' x2='460'  title='1.000000 nach 0.000000' />


</g>
<text x="5" y="98%" style="font-size:10pt;" >0</text>
<text x="25" y="98%" style="font-size:10pt;" >10</text>
<text x="45" y="98%" style="font-size:10pt;" >20</text>
<text x="285" y="15" style="font-size:10pt;" >20</text>

</svg>
