<svg xmlns="http://www.w3.org/2000/svg" version="1.1" width="310" height="170">
<style>
  .data:hover{stroke-width: 4;}
</style>
<rect width="280" height="150" fill="#516291" stroke-width="2" stroke="#07153B" />
<g stroke="#07153B">
<line class="data" x1="10" y1="72" x2="20" y2="57" stroke-width="2"  title="10:72" />
<line class="data" x1="20" y1="57" x2="30" y2="39" stroke-width="2" />
<line class="data" x1="30" y1="39" x2="40" y2="104" stroke-width="2" />
<line class="data" x1="40" y1="104" x2="50" y2="25" stroke-width="2" />
<line class="data" x1="50" y1="25" x2="60" y2="48" stroke-width="2" />
<line class="data" x1="60" y1="48" x2="70" y2="68" stroke-width="2" />
<line class="data" x1="70" y1="68" x2="80" y2="100" stroke-width="2" />
<line class="data" x1="80" y1="100" x2="90" y2="38" stroke-width="2" />
<line class="data" x1="90" y1="38" x2="100" y2="123" stroke-width="2" />
<line class="data" x1="100" y1="123" x2="110" y2="13" stroke-width="2" />
<line class="data" x1="110" y1="13" x2="120" y2="90" stroke-width="2" />
<line class="data" x1="120" y1="90" x2="130" y2="127" stroke-width="2" />
<line class="data" x1="130" y1="127" x2="140" y2="77" stroke-width="2" />
<line class="data" x1="140" y1="77" x2="150" y2="21" stroke-width="2" />
<line class="data" x1="150" y1="21" x2="160" y2="98" stroke-width="2" />
<line class="data" x1="160" y1="98" x2="170" y2="133" stroke-width="2" />
<line class="data" x1="170" y1="133" x2="180" y2="32" stroke-width="2" />
<line class="data" x1="180" y1="32" x2="190" y2="35" stroke-width="2" />
<line class="data" x1="190" y1="35" x2="200" y2="27" stroke-width="2"  title="190-200: 35-27"/>
<line class="data" x1="200" y1="27" x2="210" y2="31" stroke-width="2" />
<line class="data" x1="210" y1="31" x2="220" y2="131" stroke-width="2" />
<line class="data" x1="220" y1="131" x2="230" y2="43" stroke-width="2" />
<line class="data" x1="230" y1="43" x2="240" y2="102" stroke-width="2" />
<line class="data" x1="240" y1="102" x2="250" y2="13" stroke-width="2" />
<line class="data" x1="250" y1="13" x2="260" y2="118" stroke-width="2" />
<line x1="10" y1="0" x2="10" y2="160" stroke-width=".3" stroke-dasharray="5,5" />
<line x1="30" y1="0" x2="30" y2="160" stroke-width=".3" stroke-dasharray="5,5" />
<line x1="50" y1="0" x2="50" y2="160" stroke-width=".3" stroke-dasharray="5,5" />
<line x1="70" y1="0" x2="70" y2="160" stroke-width=".3" stroke-dasharray="5,5" />
<line x1="90" y1="0" x2="90" y2="160" stroke-width=".3" stroke-dasharray="5,5" />
<line x1="110" y1="0" x2="110" y2="160" stroke-width=".3" stroke-dasharray="5,5" />
<line x1="130" y1="0" x2="130" y2="160" stroke-width=".3" stroke-dasharray="5,5" />
<line x1="150" y1="0" x2="150" y2="160" stroke-width=".3" stroke-dasharray="5,5" />
<line x1="170" y1="0" x2="170" y2="160" stroke-width=".3" stroke-dasharray="5,5" />
<line x1="190" y1="0" x2="190" y2="160" stroke-width=".3" stroke-dasharray="5,5" />
<line x1="210" y1="0" x2="210" y2="160" stroke-width=".3" stroke-dasharray="5,5" />
<line x1="230" y1="0" x2="230" y2="160" stroke-width=".3" stroke-dasharray="5,5" />
<line x1="250" y1="0" x2="250" y2="160" stroke-width=".3" stroke-dasharray="5,5" />
<line x1="270" y1="0" x2="270" y2="160" stroke-width=".3" stroke-dasharray="5,5" />
<!-- horizontal -->
<line x1="0" y1="10" x2="285" y2="10" stroke-width=".3" stroke-dasharray="5,5" />
</g>
<text x="5" y="98%" style="font-size:10pt;" >0</text>
<text x="25" y="98%" style="font-size:10pt;" >10</text>
<text x="45" y="98%" style="font-size:10pt;" >20</text>
<text x="285" y="15" style="font-size:10pt;" >20</text>
</svg>
